# xmcd
#
# Track frame offsets: 
#        150
#        12370
#        29208
#        48700
#        58141
#        85253
#        100273
#        119779
#        134731
#
# Disc length: 2066 seconds
#
# Revision: 0
# Processed by: cddbd v1.5.2PL0 Copyright (c) Steve Scherf et al.
# Submitted via: ExactAudioCopy v0.95b4
#
DISCID=8c081009
DTITLE=The Ribtips - Summer Yard Sale
DYEAR=2006
DGENRE=Jugband
TTITLE0=Dummy
TTITLE1=Buddy (Can You Spare a Dime)
TTITLE2=Froggie (Went a Courtin')
TTITLE3=Boneaparte Crosses the Plott Balsams
TTITLE4=Ain't Misbehavin', Billy in the Lowground
TTITLE5=Bill Cheatham, Boll Weevil
TTITLE6=John Hardy (too bad)
TTITLE7=Baby Who Been Here
TTITLE8=The Blazing Star Quadrille
EXTD=
EXTT0=
EXTT1=
EXTT2=
EXTT3=
EXTT4=
EXTT5=
EXTT6=
EXTT7=
EXTT8=
PLAYORDER=
